<svg width="132" height="20" viewBox="0 0 132 20" xmlns="http://www.w3.org/2000/svg"><title>logo</title><g fill="#FFF" fill-rule="evenodd"><path d="M5.72 14.833h1.706l-2.517-3.93c1.25-.163 2.443-1.105 2.443-2.87 0-1.812-1.28-3.02-3.15-3.02H.066v9.82h1.472V11.05h1.84l2.34 3.783zm.117-6.8c0 1.03-.766 1.72-1.826 1.72H1.54V6.31H4.01c1.06 0 1.827.69 1.827 1.722zm8.234 6.8h6.596v-1.296h-5.123v-3.062h5.02V9.18h-5.02V6.31h5.123V5.013H14.07v9.82zm16.228 0h1.84l3.902-9.82h-1.68l-3.15 8.215-3.135-8.214h-1.678l3.9 9.82zm11.826 0h1.472v-9.82h-1.472v9.82zm7.97-1.384c.838.926 2.12 1.56 3.87 1.56 2.65 0 3.71-1.43 3.71-2.96 0-2.09-1.87-2.59-3.473-3.017-1.22-.31-2.28-.59-2.28-1.473 0-.824.75-1.383 1.84-1.383 1.06 0 2.09.353 2.84 1.148l.854-1.09c-.87-.883-2.06-1.37-3.577-1.37-2.047 0-3.474 1.18-3.474 2.798 0 2.003 1.825 2.46 3.4 2.87 1.25.325 2.37.62 2.37 1.65 0 .707-.56 1.516-2.15 1.516-1.368 0-2.428-.65-3.09-1.385l-.84 1.134zm16.477 1.383h1.473V6.31h3.033V5.013h-7.552V6.31h3.047v8.523zm17.95 0h1.62l-3.9-9.82H80.4l-3.902 9.82h1.62l.795-2.032h4.813l.795 2.033zm-3.208-8.54l1.987 5.198h-3.96l1.972-5.196zM117.884 18.364h9.17c3.22 0 4.916-2.003 4.916-4.506 0-2.102-1.444-3.83-3.242-4.105 1.596-.325 2.913-1.727 2.913-3.83 0-2.228-1.646-4.255-4.863-4.255h-8.893v16.696zm3.598-9.988v-3.68h4.51c1.215 0 1.975.802 1.975 1.828 0 1.076-.76 1.852-1.976 1.852h-4.508zm0 6.96v-3.93h4.636c1.42 0 2.18.9 2.18 1.952 0 1.2-.812 1.977-2.18 1.977h-4.636zM102.736 10.294h-3.15c.245 4.76 3.887 8.123 8.805 8.123 1.47 0 2.838-.3 4.03-.85l1.87 2.097 2.508-2.028-1.77-1.948c1.368-1.527 2.205-3.554 2.205-5.907 0-5.03-3.725-8.635-8.842-8.635-.113 0-.226 0-.34.005v3.11c.14-.01.282-.016.424-.016 3.176 0 5.75 2.544 5.75 5.682 0 3.138-2.574 5.682-5.75 5.682-3.05 0-5.546-2.348-5.738-5.314z"/><path d="M98.43 4.708l1.37 4.17h-2.126l-2.27-4.63V.286h5.01v4.423H98.43zm5.993 0l1.37 4.17h-2.127l-2.27-4.63V.286h5.012v4.423h-1.985z"/></g></svg>